PathFileType	4	(X/Y/Z)	C:\Users\Basilio\Documents\Thesis Gigler\squatting_fais\c3dfiles\040\SJ_pre1\markers_experimental.trc
DataRate	CameraRate	NumFrames	NumMarkers	Units	OrigDataRate	OrigDataStartFrame	OrigNumFrames
200.000000	200.000000	4	62	mm	200.000000	146	1174
Frame#	Time	FHD			LBHD			RBHD			C7			T10			CLAV			LSHO			LUUPA			LMUPA			LDUPA			LLEP			LMEP			LRAD			LUL			LRFIN			RSHO			RUPA1			RMUPA			RDUPA			RLEP			RMEP			RRAD			RUL			RUFIN			LASI			RASI			USACR			LSACR			RSACR			LTHI1			LTHI2			LTHI3			LTHI4			LLFC			LMFC			LTIB1			LTIB2			LTIB3			LTIB4			LLMAL			LMMAL			LHEE			LMT1			LMT2			LMT5			RTHI			RTHI2			RTHI3			RTHI4			RLFC			RMFC			RTIB1			RTIB2			RTIB3			RTIB4			RLMAL			RMMAL			RHEE			RMT1			RMT2			RMT5			*61			
		X1	Y1	Z1	X2	Y2	Z2	X3	Y3	Z3	X4	Y4	Z4	X5	Y5	Z5	X6	Y6	Z6	X7	Y7	Z7	X8	Y8	Z8	X9	Y9	Z9	X10	Y10	Z10	X11	Y11	Z11	X12	Y12	Z12	X13	Y13	Z13	X14	Y14	Z14	X15	Y15	Z15	X16	Y16	Z16	X17	Y17	Z17	X18	Y18	Z18	X19	Y19	Z19	X20	Y20	Z20	X21	Y21	Z21	X22	Y22	Z22	X23	Y23	Z23	X24	Y24	Z24	X25	Y25	Z25	X26	Y26	Z26	X27	Y27	Z27	X28	Y28	Z28	X29	Y29	Z29	X30	Y30	Z30	X31	Y31	Z31	X32	Y32	Z32	X33	Y33	Z33	X34	Y34	Z34	X35	Y35	Z35	X36	Y36	Z36	X37	Y37	Z37	X38	Y38	Z38	X39	Y39	Z39	X40	Y40	Z40	X41	Y41	Z41	X42	Y42	Z42	X43	Y43	Z43	X44	Y44	Z44	X45	Y45	Z45	X46	Y46	Z46	X47	Y47	Z47	X48	Y48	Z48	X49	Y49	Z49	X50	Y50	Z50	X51	Y51	Z51	X52	Y52	Z52	X53	Y53	Z53	X54	Y54	Z54	X55	Y55	Z55	X56	Y56	Z56	X57	Y57	Z57	X58	Y58	Z58	X59	Y59	Z59	X60	Y60	Z60	X61	Y61	Z61	X62	Y62	Z62	

147	0.73	-30.55385780334473	1594.4560546875	-850.2423095703127	-156.68603515625	1566.864624023438	-908.274353027344	-230.5733947753907	1535.192749023438	-784.3587036132815	-263.3088378906251	1446.663940429688	-837.0339355468752	-436.3257751464845	1175.253540039063	-852.774841308594	-181.4542083740235	1326.158447265625	-825.0201416015627	-185.949951171875	1386.24951171875	-1000.091552734375	-291.1820678710938	1307.176879882813	-1161.630859375	-299.2004699707032	1258.34375	-1158.787719726563	-332.6766052246094	1273.282348632813	-1206.646118164063	-378.7891845703126	1246.224609375	-1250.664916992188	-440.5213317871095	1271.52880859375	-1211.969360351563	-469.6279602050782	1028.377563476563	-1076.213989257813	-432.9825439453126	985.5755615234377	-1126.317993164063	-420.3504943847657	1021.451538085938	-1032.385864257813	-215.8907623291016	1374.418090820313	-655.2489624023439	-364.8736877441407	1338.340087890625	-515.5432739257814	-368.5084228515626	1288.84814453125	-506.4201660156251	-413.3584594726564	1310.799194335938	-473.2139587402345	-458.1329650878907	1265.2216796875	-437.5295715332032	-518.6577758789064	1281.056274414063	-496.8158569335939	-456.9564819335939	1052.193359375	-630.6096191406251	-456.054901123047	1005.757446289063	-570.7078247070314	-399.1409912109376	1023.4794921875	-662.5643920898439	-345.8229370117188	939.8408813476565	-941.5200195312502	-368.7518005371094	946.1238403320315	-727.5324096679689	-513.0484619140626	1050.898803710938	-850.5126953125002	-529.2993774414064	1024.369140625	-879.5150146484377	-538.2781982421876	1026.343139648438	-824.0103759765627	-402.0066833496095	726.6074829101564	-1063.346557617188	-334.7223205566407	680.2955932617189	-1087.232299804688	-294.1589050292969	704.6174926757814	-1085.885009765625	-328.1173095703126	620.3654785156251	-1082.907470703125	-257.3761291503907	516.6990966796876	-1100.91455078125	-250.7428283691407	479.4992065429689	-980.8076782226565	-260.4493408203126	293.8116760253907	-1095.854858398438	-340.7514953613282	278.8534240722657	-1133.296997070313	-300.8214416503907	259.8462524414063	-1124.257690429688	-311.7427368164063	178.7465362548828	-1100.615600585938	-397.0716247558595	102.6277770996094	-1120.48486328125	-353.6287231445313	108.1324005126953	-1039.941040039063	-449.3873291015626	42.98466110229493	-1070.728515625	-227.3057098388672	59.42468643188478	-1084.300415039063	-236.4568328857422	56.48056793212892	-1130.056518554688	-290.0743103027344	32.66809844970704	-1171.780517578125	-387.7782592773439	733.6842651367189	-614.8912353515626	-333.9260253906251	694.8029174804689	-602.9714355468751	-302.9417724609376	707.1270751953126	-607.1983032226564	-330.8899536132813	609.9014892578126	-610.4184570312501	-278.4317016601563	498.3428039550782	-600.6369018554689	-260.8175354003907	486.879852294922	-727.9927368164064	-267.3343200683594	308.4343261718751	-618.7152709960939	-363.0010681152344	257.0292358398438	-606.4545898437501	-320.3580017089844	241.042709350586	-612.0502319335939	-313.5924377441407	190.6056213378907	-642.9136352539064	-397.3952026367189	97.88115692138675	-628.7766113281251	-363.5804138183594	107.3239974975586	-713.2163696289064	-451.8477783203126	46.04973983764649	-692.1688232421876	-232.3700561523438	61.82818984985353	-655.3927001953126	-244.0185089111329	63.64897918701173	-616.7847290039064	-292.5006408691407	35.51817703247071	-573.0107421875001	nan	nan	nan	
148	0.735	-29.14185905456544	1590.64599609375	-850.700866699219	-155.0989074707032	1562.895751953125	-908.656433105469	-229.3957824707032	1531.171630859375	-784.8248291015627	-261.6018981933594	1443.164916992188	-837.497497558594	-436.641815185547	1172.838134765625	-853.082458496094	-180.7526397705078	1322.31298828125	-825.1167602539065	-184.175521850586	1382.353515625	-1000.558654785156	-290.1840515136719	1303.775268554688	-1161.892456054688	-298.4006652832032	1255.510620117188	-1159.474243164063	-331.8218688964844	1270.164916992188	-1207.005126953125	-378.0248107910157	1243.568481445313	-1251.1884765625	-439.1002807617189	1268.710815429688	-1212.473022460938	-470.604461669922	1026.496337890625	-1076.444946289063	-433.9187316894532	983.2305297851565	-1126.374389648438	-421.1306457519532	1019.235961914063	-1032.538452148438	-214.4617462158204	1370.837646484375	-655.6629028320314	-363.6481933593751	1335.460693359375	-515.9114379882814	-367.9239196777344	1286.068115234375	-506.706024169922	-412.5053100585939	1308.397583007813	-473.5190734863282	-457.8115234375001	1263.111206054688	-437.5868530273439	-517.9476928710939	1279.19775390625	-497.1302795410157	-457.8649902343751	1049.956665039063	-630.8095092773439	-457.0740661621095	1003.276000976563	-570.7764892578126	-400.3216552734376	1021.338439941406	-662.6649169921876	-347.2200927734376	937.4124145507815	-941.632995605469	-370.2008056640626	943.6372680664065	-727.6389160156251	-513.8519287109376	1048.505859375	-850.6299438476565	-529.6595458984376	1022.467407226563	-879.5325317382815	-539.0474243164064	1024.343994140625	-824.2781372070315	-402.025848388672	725.0358276367189	-1064.0224609375	-334.4217834472657	679.2526245117189	-1087.831420898438	-294.1223144531251	703.5956420898439	-1086.500366210938	-327.5470886230469	619.4234619140626	-1083.425415039063	-256.5986022949219	516.5840454101564	-1101.52392578125	-249.9773254394532	478.5588989257814	-982.1325683593752	-259.2985534667969	292.4847106933594	-1096.263916015625	-339.8816528320313	278.5917968750001	-1133.732055664063	-299.9425354003907	259.3873291015626	-1124.512451171875	-311.0842895507813	177.5633392333985	-1100.591430664063	-397.0048217773439	102.5735397338867	-1120.513916015625	-353.6553955078126	108.1060562133789	-1039.599731445313	-449.3944702148439	43.00280380249024	-1070.689453125	-227.2702789306641	59.4347381591797	-1084.294799804688	-236.5094757080079	56.48868560791017	-1130.061157226563	-290.1191406250001	32.63289260864259	-1171.74951171875	-388.3875732421876	731.8190307617189	-614.9265747070314	-334.1101074218751	692.9876708984376	-602.6158447265626	-303.4207763671876	706.2111816406251	-606.8623657226564	-330.9183044433594	608.4868164062501	-610.2099609375001	-277.5345458984376	497.5895385742189	-600.2028198242189	-259.5160827636719	486.490692138672	-727.4172973632814	-266.4090881347657	308.2171936035157	-618.3756103515626	-362.2651062011719	257.0348205566407	-606.2061157226564	-319.8420715332032	240.8082885742188	-611.9605102539064	-313.2387084960938	190.431381225586	-642.7703857421876	-397.2872009277345	97.89207458496097	-628.8826293945314	-363.4777526855469	107.249137878418	-713.2684936523439	-451.808319091797	46.08754348754884	-692.2037963867189	-232.1696319580079	60.73291397094728	-655.1789550781251	-244.1261444091797	63.77730178833009	-616.6618041992189	-292.5080871582032	35.47439193725587	-572.9995117187501	nan	nan	nan	
149	0.74	-27.76260566711426	1586.695434570313	-850.989196777344	-153.8650207519532	1559.12158203125	-909.1876220703127	-227.4817199707032	1527.170654296875	-785.3474121093752	-260.1667785644532	1439.674926757813	-837.9561157226565	-436.3870544433595	1170.368408203125	-853.112976074219	-180.1151275634766	1318.450561523438	-825.446960449219	-182.9216461181641	1378.427612304688	-1000.745727539063	-289.1685791015626	1300.452514648438	-1162.174194335938	-297.8171081542969	1252.19970703125	-1159.7197265625	-330.9872131347657	1267.124267578125	-1207.208984375	-376.8011779785157	1240.639282226563	-1251.507202148438	-438.8030395507814	1266.806640625	-1212.957641601563	-471.3454895019532	1024.53759765625	-1076.579223632813	-435.2727966308595	980.8822021484377	-1126.662231445313	-421.9313049316407	1017.092590332031	-1032.62744140625	-213.0980682373047	1367.240234375	-656.1043090820314	-362.5459594726563	1332.810424804688	-516.1301879882814	-366.8988647460938	1283.26953125	-507.1956787109376	-411.1925354003907	1305.803344726563	-473.8325195312501	-456.9479980468751	1261.291381835938	-437.9078979492189	-516.5274658203126	1277.194702148438	-497.3389892578126	-458.5837707519532	1047.591552734375	-631.0932617187501	-458.0870361328126	1001.155822753906	-571.0569458007814	-401.048553466797	1018.516540527344	-662.9579467773439	-348.4982299804688	934.8601074218752	-941.7100219726565	-371.4158630371094	940.7690429687502	-727.8613281250001	-514.3638916015626	1046.771850585938	-850.820007324219	-530.9359741210939	1020.399108886719	-879.9041137695315	-540.1751098632814	1022.315795898438	-824.5646972656252	-402.0499572753907	723.2423706054689	-1064.702026367188	-333.9714355468751	678.0090942382814	-1088.407836914063	-293.8042907714844	702.4622802734376	-1086.984130859375	-326.8457641601563	618.3975830078126	-1084.33447265625	-255.203842163086	515.9489746093751	-1102.141235351563	-249.0865325927735	478.6072692871095	-982.5957031250002	-258.3075256347657	291.8820190429688	-1096.622314453125	-339.3630371093751	278.3876342773438	-1133.973022460938	-299.2413940429688	259.0841979980469	-1124.813110351563	-311.0495605468751	177.8475494384766	-1100.537353515625	-396.9017333984376	102.5517578125	-1120.566528320313	-353.5876159667969	108.0948944091797	-1039.58935546875	-449.390594482422	42.99746322631837	-1070.68896484375	-226.8672943115235	59.05923461914064	-1084.31201171875	-236.5162048339844	56.44573974609376	-1130.046630859375	-290.1095886230469	32.64738845825196	-1171.763793945313	-388.8796691894532	730.0000000000001	-614.8985595703126	-334.4693908691407	691.7831420898439	-602.3743896484376	-303.6544189453126	704.7003173828126	-606.6387329101564	-330.0639343261719	607.0295410156251	-609.9393920898439	-275.7714538574219	496.8160705566407	-599.9161376953126	-258.2334594726563	485.9568481445314	-727.0163574218751	-265.8901062011719	307.3803710937501	-618.2532958984376	-361.5200500488282	256.9233398437501	-606.0310058593751	-319.0432434082032	240.229721069336	-611.6342773437501	-312.7473449707032	189.7351379394532	-642.6514282226564	-397.2242736816407	97.88647460937503	-628.9301757812501	-363.4483947753907	107.2393264770508	-713.3231811523439	-451.7849121093751	46.05427169799805	-692.2556762695314	-232.1414184570313	61.0496292114258	-655.1854858398439	-244.0189361572266	63.42396163940431	-616.7958984375001	-292.4235534667969	35.53965377807618	-573.0040283203126	nan	nan	nan	
150	0.745	-26.41004943847657	1582.691284179688	-850.9892578125002	-151.9723052978516	1554.976806640625	-909.5918579101565	-226.1003570556641	1523.518676757813	-785.7656250000002	-258.9488220214844	1436.450805664063	-838.090759277344	-436.5614013671876	1167.846313476563	-853.233337402344	-178.7375030517578	1314.244506835938	-826.0088500976565	-181.6185607910157	1374.302001953125	-1001.026977539063	-288.1761474609376	1296.996215820313	-1162.561157226563	-296.7480773925782	1248.64794921875	-1160.31201171875	-330.1498413085938	1264.20458984375	-1207.65283203125	-376.4721984863282	1237.919799804688	-1252.078491210938	-437.4171142578126	1264.024169921875	-1213.446533203125	-472.0664367675782	1022.371643066406	-1076.877807617188	-436.0612792968751	978.823913574219	-1126.501953125	-422.3488769531251	1014.167236328125	-1033.033081054688	-212.030502319336	1363.270385742188	-656.4207763671876	-361.2188415527344	1329.918823242188	-516.6289062500001	-365.9171447753907	1280.477416992188	-507.5599975585939	-410.4379882812501	1303.447998046875	-473.9541625976564	-456.1843872070314	1258.520385742188	-437.9165344238282	-516.3008422851564	1275.458740234375	-497.5144042968751	-459.418914794922	1045.493774414063	-631.4493408203126	-458.9639892578126	998.805847167969	-571.3376464843751	-401.879364013672	1015.934875488281	-663.3027954101564	-349.5213928222657	932.0850219726565	-941.782897949219	-372.4673461914063	938.3645629882815	-728.3089599609376	-515.2384643554689	1044.682495117188	-851.0718994140627	-531.7209472656251	1018.39501953125	-880.169616699219	-541.1793823242189	1020.22998046875	-824.8374633789065	-402.2256469726564	721.4969482421876	-1065.412841796875	-333.9856567382813	677.0018310546876	-1089.203002929688	-293.7787475585938	701.7294311523439	-1087.59033203125	-326.0700988769532	616.9976806640626	-1085.080078125	-253.7902984619141	515.3096313476564	-1102.78125	-247.4469909667969	477.5411071777345	-983.3763427734377	-257.5613708496094	291.2217102050782	-1096.72412109375	-338.6513366699219	278.1624755859376	-1134.33740234375	-299.3546447753907	259.0717468261719	-1124.463623046875	-310.7196655273438	176.9690856933594	-1100.729125976563	-396.7314758300782	102.4285736083985	-1120.610229492188	-353.5108032226563	107.8002853393555	-1039.330932617188	-449.3948669433595	43.02546310424805	-1070.653686523438	-227.2942810058594	59.44712448120119	-1084.295776367188	-236.5458374023438	56.45015335083009	-1130.082275390625	-290.1182556152344	32.66908645629884	-1171.755737304688	-389.4370727539064	728.0144042968751	-614.9152221679689	-334.8016662597657	690.4946289062501	-602.1340332031251	-304.0663452148438	703.7274169921876	-606.2144165039064	-329.6589355468751	605.7928466796876	-609.7399902343751	-274.6683044433594	496.3708801269532	-599.4407348632814	-256.8322753906251	485.4363098144532	-726.4956665039064	-264.8056030273438	307.0312194824219	-617.9979248046876	-360.9380493164063	256.5767822265626	-605.8171997070314	-318.2203979492188	239.796127319336	-611.8549194335939	-312.2146606445313	189.6629486083985	-642.2058715820314	-397.0765075683595	97.84478759765628	-628.9746704101564	-363.2187805175782	107.1898269653321	-713.3326416015626	-451.7728881835939	46.10420989990235	-692.2852783203126	-231.9768066406251	60.36537551879884	-655.1550903320314	-244.1000518798829	63.57785797119142	-616.6601562500001	-292.4346923828126	35.42724227905274	-573.0308837890626	nan	nan	nan	
